<?xml version="1.0" encoding="utf-8"?>
<!-- Generator: Adobe Illustrator 18.0.0, SVG Export Plug-In . SVG Version: 6.00 Build 0)  -->
<!DOCTYPE svg PUBLIC "-//W3C//DTD SVG 1.1//EN" "http://www.w3.org/Graphics/SVG/1.1/DTD/svg11.dtd">
<svg version="1.1" id="Layer_1" xmlns="http://www.w3.org/2000/svg" xmlns:xlink="http://www.w3.org/1999/xlink" x="0px" y="0px"
	 viewBox="0 0 612 612" enable-background="new 0 0 612 612" xml:space="preserve">
<circle fill="none" stroke="#FFFFFF" stroke-width="55" stroke-miterlimit="10" cx="306" cy="306" r="275"/>
<g>
	<path fill="#FFFFFF" d="M336.6,153.8v346.1c0,5.3-4.3,9.6-9.6,9.6h-44c-5.3,0-9.6-4.3-9.6-9.6V153.8c0-5.3,4.3-9.6,9.6-9.6h44
		C332.3,144.2,336.6,148.5,336.6,153.8z"/>
	<path fill="#FFFFFF" d="M343.8,150.3L169.5,324.6c-3.7,3.7-9.9,3.7-13.6,0l-31.4-31.4c-3.7-3.7-3.7-9.9,0-13.6l174.3-174.3
		c3.7-3.7,9.9-3.7,13.6,0l31.4,31.4C347.5,140.4,347.5,146.6,343.8,150.3z"/>
	<path fill="#FFFFFF" d="M442.5,324.6L268.2,150.3c-3.7-3.7-3.7-9.9,0-13.6l31.4-31.4c3.7-3.7,9.9-3.7,13.6,0l174.3,174.3
		c3.7,3.7,3.7,9.9,0,13.6l-31.4,31.4C452.4,328.4,446.3,328.4,442.5,324.6z"/>
</g>
</svg>
