<?xml version="1.0" encoding="utf-8"?>
<!-- Generator: Adobe Illustrator 18.0.0, SVG Export Plug-In . SVG Version: 6.00 Build 0)  -->
<!DOCTYPE svg PUBLIC "-//W3C//DTD SVG 1.1//EN" "http://www.w3.org/Graphics/SVG/1.1/DTD/svg11.dtd">
<svg version="1.1" id="Layer_1" xmlns="http://www.w3.org/2000/svg" xmlns:xlink="http://www.w3.org/1999/xlink" x="0px" y="0px"
	 viewBox="0 0 612 612" enable-background="new 0 0 612 612" xml:space="preserve">
<circle fill="#0E8A94" cx="306" cy="306" r="275"/>
<g>
	<path fill="none" stroke="#75B2B7" stroke-width="15" stroke-miterlimit="10" d="M433.8,238.8c0,36-19,72.9-48.4,93.8
		c-11.1,7.9-24.1,72.8-37.7,77.1c-9.8,3.1-43,4-66,2.8c-9.2-0.5-16.7-1.3-20.5-2.5c-13.9-4.3-26.4-69.3-37.7-77.3
		c-29.6-21-48.4-57.9-48.4-94c0-63.2,57.9-114.4,129.4-114.4S433.8,175.7,433.8,238.8z"/>
	<path fill="#75B2B7" d="M343.9,499.6h-78.3c-6.6,0-12-7-12-15.6v-68.6c0-8.6,102.3-8.6,102.3,0v68.6
		C355.9,492.5,350.5,499.6,343.9,499.6z"/>
	<line fill="none" stroke="#75B2B7" stroke-width="10" stroke-miterlimit="10" x1="281.7" y1="412.6" x2="260.1" y2="291.6"/>
	<line fill="none" stroke="#75B2B7" stroke-width="10" stroke-miterlimit="10" x1="346.7" y1="292.5" x2="324.3" y2="412.6"/>
	<path fill="none" stroke="#75B2B7" stroke-width="10" stroke-miterlimit="10" d="M260.1,295.3l1.9-9.1
		c24.4-12.6,57.6-12.8,81.5,0.6l2.6,8.5"/>
</g>
</svg>
