<?xml version="1.0" encoding="utf-8"?>
<!-- Generator: Adobe Illustrator 18.0.0, SVG Export Plug-In . SVG Version: 6.00 Build 0)  -->
<!DOCTYPE svg PUBLIC "-//W3C//DTD SVG 1.1//EN" "http://www.w3.org/Graphics/SVG/1.1/DTD/svg11.dtd">
<svg version="1.1" id="Layer_1" xmlns="http://www.w3.org/2000/svg" xmlns:xlink="http://www.w3.org/1999/xlink" x="0px" y="0px"
	 viewBox="0 0 612 612" enable-background="new 0 0 612 612" xml:space="preserve">
<circle fill="#0E8A94" stroke="#4D4D4E" stroke-miterlimit="10" cx="306" cy="306" r="275"/>
<path fill="#75B2B7" d="M312.7,506h-13.9c-6.6,0-12-5.4-12-12l-42.3-188l42.3-188c0-6.6,5.4-12,12-12h13.9c6.6,0,12,5.4,12,12
	l43.2,188l-43.2,188C324.7,500.6,319.3,506,312.7,506z"/>
<path fill="#75B2B7" d="M506,299.5v13.9c0,6.6-5.4,12-12,12l-188,42.3l-188-42.3c-6.6,0-12-5.4-12-12v-13.9c0-6.6,5.4-12,12-12
	l188-43.2l188,43.2C500.6,287.5,506,292.9,506,299.5z"/>
<path fill="#75B2B7" d="M475.7,200l6.9,12c3.3,5.7,1.3,13.1-4.4,16.4L336.6,359l-183.9,57.4c-5.7,3.3-13.1,1.3-16.4-4.4l-6.9-12
	c-3.3-5.7-1.3-13.1,4.4-16.4l141.2-131.4l184.4-56.6C465.1,192.3,472.4,194.3,475.7,200z"/>
<path fill="#75B2B7" d="M400,129.3l12,6.9c5.7,3.3,7.7,10.7,4.4,16.4L359,336.6L228.4,478.3c-3.3,5.7-10.7,7.7-16.4,4.4l-12-6.9
	c-5.7-3.3-7.7-10.7-4.4-16.4l56.6-184.4l131.4-141.2C386.9,128,394.3,126,400,129.3z"/>
<path fill="#75B2B7" d="M412,475.7l-12,6.9c-5.7,3.3-13.1,1.3-16.4-4.4L253,336.6l-57.4-183.9c-3.3-5.7-1.3-13.1,4.4-16.4l12-6.9
	c5.7-3.3,13.1-1.3,16.4,4.4l131.4,141.2l56.6,184.4C419.7,465.1,417.7,472.4,412,475.7z"/>
<path fill="#75B2B7" d="M482.7,400l-6.9,12c-3.3,5.7-10.7,7.7-16.4,4.4L275.4,359L133.7,228.4c-5.7-3.3-7.7-10.7-4.4-16.4l6.9-12
	c3.3-5.7,10.7-7.7,16.4-4.4l184.4,56.6l141.2,131.4C484,386.9,486,394.3,482.7,400z"/>
<circle fill="#0B8A94" stroke="#75B2B7" stroke-width="30" stroke-miterlimit="10" cx="306" cy="306" r="150"/>
</svg>
