<?xml version="1.0" encoding="utf-8"?>
<!-- Generator: Adobe Illustrator 17.1.0, SVG Export Plug-In . SVG Version: 6.00 Build 0)  -->
<!DOCTYPE svg PUBLIC "-//W3C//DTD SVG 1.1//EN" "http://www.w3.org/Graphics/SVG/1.1/DTD/svg11.dtd">
<svg version="1.1" id="Layer_1" xmlns="http://www.w3.org/2000/svg" xmlns:xlink="http://www.w3.org/1999/xlink" x="0px" y="0px"
	 viewBox="0 0 253.977 230" enable-background="new 0 0 253.977 230" xml:space="preserve">
<g>
	<path fill="#0D8993" d="M91.583,66.716l-25.004,42.568c-1.458,2.482-4.133,3.995-7.011,3.966l-39.053-0.395
		c-6.107-0.062-9.916-6.642-6.929-11.969l47.481-84.659c1.416-2.524,4.08-4.093,6.974-4.106l98.429-0.442
		c6.139-0.028,10.041,6.559,7.068,11.93l-19.32,34.905c-1.413,2.553-4.099,4.14-7.017,4.145L98.498,62.75
		C95.654,62.755,93.024,64.263,91.583,66.716z"/>
	<path fill="#30659B" d="M168.567,218.147l-98.138,0.173c-2.865,0.005-5.516-1.516-6.959-3.991l-49.048-84.183
		c-3.137-5.385,0.782-12.137,7.013-12.083l38.635,0.33c2.779,0.024,5.348,1.481,6.795,3.854l24.865,44.937
		c1.375,2.256,3.77,3.692,6.407,3.842l52.663,0.277c2.675,0.152,5.098,1.627,6.461,3.933l18.208,30.782
		C178.637,211.37,174.786,218.136,168.567,218.147z"/>
	<path fill="#4D507B" d="M179.52,203.564l-18.177-30.745c-1.376-2.327-1.49-5.19-0.303-7.619l22.596-46.238
		c1.18-2.416,1.075-5.262-0.281-7.583l-24.583-42.081c-1.43-2.447-1.465-5.467-0.092-7.947l19.19-34.67
		c3.019-5.454,10.827-5.544,13.972-0.163l48.73,83.397c1.428,2.444,1.465,5.46,0.097,7.939l-47.194,85.504
		C190.47,208.803,182.685,208.918,179.52,203.564z"/>
	<path opacity="0.5" fill="#30659B" d="M125.642,121.69l23.098,38.723c1.044,1.94-0.392,4.286-2.595,4.239l-47.018-0.358
		c-1.018-0.022-1.948-0.58-2.446-1.468l-21.624-40.817c-1.072-1.911,0.684-3.408,2.876-3.42l43.666,0.842
		C124.199,119.48,124.199,119.48,125.642,121.69z"/>
	<path opacity="0.5" fill="#4D507B" d="M177.369,118.839l-19.641,39.872c-1.09,1.857-3.475,1.519-4.48-0.385l-22.877-38.879
		c-0.974-1.726-0.981-3.41-0.198-4.851l20.709-37.869c1.03-1.829,3.898-2.427,4.991-0.635l21.492,36.081
		C178.995,114.761,178.449,116.82,177.369,118.839z"/>
	<path opacity="0.5" fill="#0D8993" d="M147.039,73.786l-21.884,39.152c-0.495,0.864-1.412,1.399-2.408,1.406l-46.384-0.446
		c-2.173,0.014-3.251-1.65-2.147-3.521l22.851-39.652c0.513-0.869,1.454-1.394,2.462-1.375l45.138,0.248
		C146.791,69.64,148.096,71.942,147.039,73.786z"/>
</g>
</svg>
